<svg id="Layer_1" data-name="Layer 1" xmlns="http://www.w3.org/2000/svg" xmlns:xlink="http://www.w3.org/1999/xlink" viewBox="0 0 1920 952.35" style="background-color:#121212"><defs><clipPath id="clip-path" transform="translate(0 4.85)"><path d="M1963.94,157.17c-35.52,30.12-245.87,168.11-286.44,32.75-59.65-199-285.42-2.39-252.64-230.92L-30-40.17S-122.35,431.29,167.8,522.06c133.26,41.69,409.54-160.9,462.34,81.12,32.78,150.24,66.63,167.51,121,170.85,135.75,8.35,189.38-126.07,344.48-99.3,81.58,14.08,114.47,15.93,194.57,147.67,90.15,148.27,330.55,59.43,270.45-81.21C1488.75,572.86,1683,618.76,1802.09,648,2005,697.74,2194.55-38.42,1963.94,157.17Z" style="fill:none"/></clipPath></defs><g style="opacity:0.12"><g style="clip-path:url(#clip-path)"><rect width="1920" height="952.35" style="fill:#6f78b9"/></g></g></svg>
