<svg id="Layer_1" data-name="Layer 1" xmlns="http://www.w3.org/2000/svg" viewBox="0 0 346.77 69.77"><g style="opacity:0.33"><line x1="291.68" y1="16.17" x2="326.06" y2="16.17" style="fill:#aa519e"/><path d="M326.06,22.29H291.68a6.12,6.12,0,0,1,0-12.23h34.38a6.12,6.12,0,0,1,0,12.23Z" style="fill:#fff"/></g><g style="opacity:0.33"><line x1="291.68" y1="55.09" x2="311.14" y2="55.09" style="fill:#aa519e"/><path d="M311.14,61.2H291.68a6.11,6.11,0,0,1,0-12.22h19.46a6.11,6.11,0,1,1,0,12.22Z" style="fill:#fff"/></g><g style="opacity:0.33"><line x1="291.68" y1="35.63" x2="340.66" y2="35.63" style="fill:#aa519e"/><path d="M340.66,41.75h-49a6.12,6.12,0,0,1,0-12.23h49a6.12,6.12,0,0,1,0,12.23Z" style="fill:#fff"/></g><path d="M326.24,56.3a1.05,1.05,0,0,1-.55-.94,1.12,1.12,0,0,1,.55-.92l7.55-4.54a1.08,1.08,0,0,1,1.06,0,.93.93,0,0,1,.51.87,1,1,0,0,1-.51.92L328,55.77v-.88L334.85,59a1,1,0,0,1,.51.9,1,1,0,0,1-.26.68,1.11,1.11,0,0,1-.62.35.93.93,0,0,1-.69-.13Z" style="fill:#aa519e"/><path d="M334.29,61.84a1.79,1.79,0,0,1-1-.28L325.78,57a1.93,1.93,0,0,1,0-3.31l7.59-4.57a2,2,0,0,1,1.93,0,1.79,1.79,0,0,1,1,1.64,1.86,1.86,0,0,1-.94,1.67l-4.89,2.91,4.89,2.93a1.89,1.89,0,0,1,.94,1.65,1.86,1.86,0,0,1-.49,1.28,2.05,2.05,0,0,1-1.09.61A2.19,2.19,0,0,1,334.29,61.84Zm-5.93-5.29,5.87,3.52.23-.06c0-.15,0-.19-.08-.26l-5.69-3.4Zm-1.66-1,.39.23V55l-.4.24s-.12.1-.12.17S326.57,55.47,326.7,55.56Zm1.72-1.41.28.17,5.7-3.39c.06,0,.08,0,.08-.17s-.15-.15-.3-.08Z" style="fill:#aa519e"/><path d="M33.62,69.77A32.9,32.9,0,0,1,9.71,59.71,34.4,34.4,0,0,1,2.57,48.6,36.38,36.38,0,0,1,0,34.84,35.86,35.86,0,0,1,2.57,21.21,34.39,34.39,0,0,1,9.71,10.15,33.5,33.5,0,0,1,20.38,2.7,32.35,32.35,0,0,1,33.62,0,34.14,34.14,0,0,1,45.16,1.74a33.08,33.08,0,0,1,9.71,5.75A4.68,4.68,0,0,1,56,8.58a3.4,3.4,0,0,1,.53,1.13,6.57,6.57,0,0,1,.13,1.35,3.61,3.61,0,0,1-1.18,2.75,4.52,4.52,0,0,1-6,.13,25.82,25.82,0,0,0-6.67-4.27,23.26,23.26,0,0,0-9.1-1.48A22.73,22.73,0,0,0,24,10.28,25.53,25.53,0,0,0,16,16a26.49,26.49,0,0,0-5.35,8.49A27.68,27.68,0,0,0,8.71,34.84a27.92,27.92,0,0,0,1.92,10.41A26.49,26.49,0,0,0,16,53.74a25.1,25.1,0,0,0,8,5.71A24,24,0,0,0,42,60a32.59,32.59,0,0,0,7.62-4.22,4.59,4.59,0,0,1,3.09-1A4,4,0,0,1,55.31,56a4.16,4.16,0,0,1,1,3,4.38,4.38,0,0,1-.35,1.7,4.78,4.78,0,0,1-1,1.52A34.72,34.72,0,0,1,44.9,67.85,33.17,33.17,0,0,1,33.62,69.77Z" style="fill:#6f78b9"/><path d="M88.06,69.25a24.62,24.62,0,0,1-12.45-3.09,22.49,22.49,0,0,1-8.5-8.54A24.89,24.89,0,0,1,64,45.12a25.07,25.07,0,0,1,3.09-12.59A22.39,22.39,0,0,1,75.61,24a24.63,24.63,0,0,1,12.45-3.1A24.46,24.46,0,0,1,100.43,24a22.37,22.37,0,0,1,8.49,8.53A25.08,25.08,0,0,1,112,45.12a25.19,25.19,0,0,1-3,12.5,22.22,22.22,0,0,1-8.45,8.54A24.63,24.63,0,0,1,88.06,69.25Zm0-7.84a15.35,15.35,0,0,0,8-2.09,14.69,14.69,0,0,0,5.44-5.75,17.6,17.6,0,0,0,2-8.45,17.84,17.84,0,0,0-2-8.49,14.63,14.63,0,0,0-5.44-5.8,16.41,16.41,0,0,0-16,0,14.89,14.89,0,0,0-5.49,5.8,17.63,17.63,0,0,0-2,8.49,17.39,17.39,0,0,0,2,8.45,15,15,0,0,0,5.49,5.75A15.28,15.28,0,0,0,88.06,61.41Z" style="fill:#6f78b9"/><path d="M146.86,69.25a23.82,23.82,0,0,1-12.24-3.18A23.53,23.53,0,0,1,126,57.4,24.22,24.22,0,0,1,122.81,45a25.74,25.74,0,0,1,2.92-12.32,22.71,22.71,0,0,1,8-8.63,21,21,0,0,1,11.41-3.18,21.48,21.48,0,0,1,16.82,7.93V5.31a4.28,4.28,0,0,1,1.26-3.22,4.81,4.81,0,0,1,6.4,0,4.37,4.37,0,0,1,1.22,3.22V45a24.22,24.22,0,0,1-3.18,12.37,23.43,23.43,0,0,1-20.77,11.85Zm0-7.84a14.78,14.78,0,0,0,7.92-2.14,15.11,15.11,0,0,0,5.49-5.88,17.36,17.36,0,0,0,2-8.36,17.08,17.08,0,0,0-2-8.36,15.28,15.28,0,0,0-5.49-5.79,15.67,15.67,0,0,0-15.81,0,15.41,15.41,0,0,0-5.57,5.79A16.79,16.79,0,0,0,131.35,45a17.06,17.06,0,0,0,2.05,8.36A15.23,15.23,0,0,0,139,59.27,14.9,14.9,0,0,0,146.86,61.41Z" style="fill:#6f78b9"/><path d="M208.87,69.25A26.24,26.24,0,0,1,196,66.16a22.69,22.69,0,0,1-8.79-8.54,24.33,24.33,0,0,1-3.18-12.5,25.67,25.67,0,0,1,3-12.59A22,22,0,0,1,195.37,24a23.82,23.82,0,0,1,12.2-3.1,21.89,21.89,0,0,1,11.67,3,19.55,19.55,0,0,1,7.44,8.27,27.35,27.35,0,0,1,2.57,12.16,3.63,3.63,0,0,1-1.13,2.74,4,4,0,0,1-2.87,1.09H190.14v-7H225l-3.57,2.44a18.62,18.62,0,0,0-1.75-7.8,12.68,12.68,0,0,0-12.1-7.44,15.89,15.89,0,0,0-8.5,2.17,14.06,14.06,0,0,0-5.35,6,19.51,19.51,0,0,0-1.83,8.58,16.71,16.71,0,0,0,2.17,8.54,16,16,0,0,0,6,5.92,17.54,17.54,0,0,0,8.8,2.18,16.68,16.68,0,0,0,5.53-1A17.27,17.27,0,0,0,219,58.45a5,5,0,0,1,2.83-1,3.83,3.83,0,0,1,2.65.92A4.13,4.13,0,0,1,226,61.23a3.06,3.06,0,0,1-1.39,2.7,24.2,24.2,0,0,1-7.36,3.84A26.55,26.55,0,0,1,208.87,69.25Z" style="fill:#6f78b9"/><path d="M251.9,68.9a11.5,11.5,0,0,1-6.79-2.09,13.87,13.87,0,0,1-4.62-5.71,19.83,19.83,0,0,1-1.65-8.32V5.23A4.18,4.18,0,0,1,243.19.87a4.27,4.27,0,0,1,3.14,1.22,4.26,4.26,0,0,1,1.22,3.14V52.78a10.4,10.4,0,0,0,1.22,5.32,3.58,3.58,0,0,0,3.13,2.09h2.18a3.63,3.63,0,0,1,2.83,1.22A4.51,4.51,0,0,1,258,64.54a3.73,3.73,0,0,1-1.66,3.14,7,7,0,0,1-4.26,1.22Z" style="fill:#6f78b9"/></svg>