<svg xmlns="http://www.w3.org/2000/svg" viewBox="0 0 102.84 13.6"><defs><style>.cls-1{fill:#fff;opacity:0.15;}</style></defs><g id="Layer_2" data-name="Layer 2"><g id="Layer_6" data-name="Layer 6"><path class="cls-1" d="M6.3,0C4.59,0,4.37,0,3.7,0A4.51,4.51,0,0,0,2.17.33a3.1,3.1,0,0,0-1.11.73A3.1,3.1,0,0,0,.33,2.17,4.51,4.51,0,0,0,0,3.7c0,.67,0,.89,0,2.6S0,8.22,0,8.9a4.45,4.45,0,0,0,.29,1.52,3.05,3.05,0,0,0,.73,1.12,3.1,3.1,0,0,0,1.11.73,4.83,4.83,0,0,0,1.53.29c.67,0,.89,0,2.6,0s1.92,0,2.6,0a4.7,4.7,0,0,0,1.52-.29,3.24,3.24,0,0,0,1.85-1.85,4.7,4.7,0,0,0,.29-1.52c0-.68,0-.89,0-2.6s0-1.93,0-2.6a4.77,4.77,0,0,0-.29-1.53,3.1,3.1,0,0,0-.73-1.11A3.05,3.05,0,0,0,10.42.33,4.45,4.45,0,0,0,8.9,0C8.22,0,8,0,6.3,0Zm0,1.13c1.68,0,1.88,0,2.54,0A3.38,3.38,0,0,1,10,1.39a1.88,1.88,0,0,1,.73.47,1.91,1.91,0,0,1,.47.72,3.49,3.49,0,0,1,.22,1.17c0,.67,0,.87,0,2.55s0,1.88,0,2.54A3.38,3.38,0,0,1,11.2,10a1.88,1.88,0,0,1-.47.73,1.91,1.91,0,0,1-.72.47,3.45,3.45,0,0,1-1.18.22c-.67,0-.86,0-2.55,0s-1.88,0-2.55,0a3.43,3.43,0,0,1-1.17-.22,1.77,1.77,0,0,1-.72-.47A1.83,1.83,0,0,1,1.36,10a3.72,3.72,0,0,1-.22-1.18c0-.66,0-.86,0-2.54s0-1.88,0-2.55a3.71,3.71,0,0,1,.22-1.17,1.79,1.79,0,0,1,.48-.73,1.77,1.77,0,0,1,.72-.47,3.36,3.36,0,0,1,1.16-.22c.67,0,.87,0,2.56,0Zm0,1.93A3.24,3.24,0,1,0,9.53,6.3,3.24,3.24,0,0,0,6.3,3.06Zm0,5.34A2.1,2.1,0,1,1,8.4,6.3,2.1,2.1,0,0,1,6.3,8.4Zm4.12-5.46a.76.76,0,0,1-.76.75.76.76,0,0,1,0-1.51A.76.76,0,0,1,10.42,2.94Z"/><path class="cls-1" d="M42.91,6.37a6.28,6.28,0,1,0-7.26,6.2V8.18H34.06V6.37h1.59V5A2.22,2.22,0,0,1,38,2.54a9.87,9.87,0,0,1,1.4.12V4.21h-.79a.9.9,0,0,0-1,1V6.37h1.74l-.28,1.81H37.62v4.39A6.28,6.28,0,0,0,42.91,6.37Z"/><path class="cls-1" d="M70.67,1.06A1.38,1.38,0,0,1,72,2.35V13.6l-1.4-1.19-.77-.7L69,11l.35,1.15H62.05a1.29,1.29,0,0,1-1.33-1.29V2.35a1.32,1.32,0,0,1,1.33-1.29ZM67.48,4h0l-.1.1a4.13,4.13,0,0,1,1.6.8,5.7,5.7,0,0,0-3.25-.59h-.1a4.58,4.58,0,0,0-1.47.38l-.38.18a3.72,3.72,0,0,1,1.67-.8L65.36,4a3.07,3.07,0,0,0-1.81.66,8.12,8.12,0,0,0-.95,3.67,2.29,2.29,0,0,0,2,.94s.21-.28.42-.52A2.07,2.07,0,0,1,63.86,8l.18.11h.09l.49.21a3.93,3.93,0,0,0,.94.28,5.18,5.18,0,0,0,1.67,0,4.6,4.6,0,0,0,.94-.28A6.53,6.53,0,0,0,68.9,8a2,2,0,0,1-1.15.73c.17.24.42.52.42.52a2.73,2.73,0,0,0,2-.9,8.17,8.17,0,0,0-1-3.67A3.12,3.12,0,0,0,67.45,4l0,0Zm.08,2.3a.7.7,0,0,1,0,1.4.7.7,0,0,1,0-1.4Zm-2.37,0a.7.7,0,1,1-.67.7.69.69,0,0,1,.67-.7Z"/><path class="cls-1" d="M96.44.09a6.39,6.39,0,0,0-2,12.46c.32.06.44-.14.44-.31s0-.56,0-1.09c-1.78.39-2.15-.86-2.15-.86A1.71,1.71,0,0,0,92,9.36C91.41,9,92,9,92,9a1.36,1.36,0,0,1,1,.66,1.36,1.36,0,0,0,1.86.53,1.34,1.34,0,0,1,.41-.85c-1.42-.16-2.91-.71-2.91-3.16A2.47,2.47,0,0,1,93,4.43a2.31,2.31,0,0,1,.06-1.69s.53-.17,1.76.66A5.89,5.89,0,0,1,98,3.4c1.22-.83,1.75-.66,1.75-.66a2.33,2.33,0,0,1,.07,1.69,2.52,2.52,0,0,1,.65,1.72c0,2.45-1.49,3-2.91,3.15A1.53,1.53,0,0,1,98,10.48c0,.86,0,1.55,0,1.75s.11.37.44.31a6.38,6.38,0,0,0-2-12.45"/></g></g></svg>